<svg xmlns="http://www.w3.org/2000/svg" viewBox="0 0 200 32" fill="none" aria-hidden="true">
  <title>Ferrograph wordmark</title>
  <g class="lockup">
    <g transform="translate(2.79, 1.0) scale(0.0421)">
      <path d="M9.96,401.24c-19.54-42.27-9.73-90.94,24.24-121.98,21.66-19.8,49.88-29.47,79.61-28.58,34.16,1.21,65.5,15.42,90.85,38.25,24.07-8.42,45.85-20.22,67.81-33.68-7.12-38.55,3.05-77.17,27.23-108.1,10.94-14.04,23.48-25.58,36.94-37.26,9.94-8.62,19.63-16.71,31.23-22.62,23.71-12.08,50.78-8.02,69.54,10.37l36.22-11.6c-8.24,6.09-21.56,7.86-29.23,13.08,6.69-.21,11.64-3.43,17.53-5.77,14.44-5.74,28.33-11.57,41.65-19.03l-7.41,1.29c18.66-10.36,36.48-20.36,53.53-33.59-1.08-16.92,8.6-32.04,23.03-38.52,15.51-6.97,33.62-3.36,44.94,9.22,12.71,14.12,13.3,34.29,2.33,49.28-10.66,14.57-30.63,20.4-48.46,12.21-36.39,20.62-69.98,46.6-98.35,78.88,8.17,17.6,13.42,35.46,14.16,54.8,1.8,46.82-24.61,88.7-66.94,108.26-18.25,8.44-37.17,12.08-57.74,12.45l-22.47,44.75c10.81,15.66,11.15,35.41-1.17,50.73,15.14,30.07,35.11,57.15,59.98,79.23,16.59-5.04,33.15.67,42.6,13.81s9.33,31.51-1.24,44.52c-14.42,17.74-40.39,19.16-57.48,3.34-19.43,5.15-38.28,12.78-55.66,23.5,8.35,34.22-.48,69.81-23.84,94.74-35.24,37.62-93.38,39.8-131.1,4.67-43.75-40.75-38.89-110.4,2.6-152.22-6.46-19.16-14.74-37.35-24.92-55.13-54.96-3.05-115.42-26.1-140.02-79.29ZM580.03,6.1l-.3-2.32c-4.25,1.1-7.02,1.79-9.18,5.37l9.48-3.05ZM468.69,134.21c1.17-.35,3.19-2.07,2.68-2.38l-2.79-1.68c23.3-16.76,44.55-34.88,63.92-56.94-28.94,8.3-56.75,21.34-83,38.01l13.56,21.89c1.41-.37,2.96-.96,3.56-.65.48.25,1.61,1.89,2.08,1.75ZM384.38,85.45c-8.3-.32-14.99,2.33-19.52,7.82l19.52-7.82ZM52.85,269.79l32.04-12.72c-8.39-.21-16.24,2.66-23,7.07-3.1,1.75-6.18,3.29-9.04,5.65ZM211.16,288.65c-.57.99-1.4,2.35-.96,2.12.31-.16,2.14.14,2.92-.15,16.17-6.07,36.39-16.43,51.53-26.17-3.42-.29-6.85,2.91-10.04,4.51-14.29,7.18-28.53,13.35-43.45,19.69ZM250.16,518.39c1.01.56,2.72,1.37,2.74.77l.07-2.32c13.93-25.38,26.5-50.98,37.46-78.04.56-1.39.68-3.95.51-5.32-17.04-8.42-33.3-32.57-21.92-51.27,9.54-15.68,29.65-27.98,48.33-23.71l8.68-36.73c-19.22-9.16-34.12-23.18-44.5-41.58-20.88,7.5-40.52,16.75-59.93,28.04,7.78,11.59,13.49,23.67,17.83,37,4.16,13.04,7.29,25.87,8.53,39.61-.57,10.42-3.76,19.57-8.5,28.7-8.39,17.62-18.87,33.72-33.22,46.9-9.36,8.35-19.11,14.29-32.13,17.67,6.79,14.72,14.77,28.05,23.83,41.51,16.89-6.34,34.88-6.29,52.23-1.22ZM302.61,362.58c-6.5-2.06-10.51,1.6-13.96,5.45l13.96-5.45ZM321.87,573.8l22.78-9.66,28.29-17.13c-2.26-12.82,1.57-24.29,10.29-33.73-13.63-29.64-32.73-56.66-56.34-79.34l-12,3.73c-11.02,32.14-19.34,65.07-25.42,98.88,14.04,10,24.51,21.92,32.41,37.26ZM330.54,575.05c9.81-4.57,19.55-8.77,28.13-15.23l-28.64,12.84c-.59.26-1.63,1.04-1.86,1.31-.2.24-.15.64.18.7l2.18.38Z" fill="var(--fg-body, currentColor)"/>
    </g>
    <text
      x="44"
      y="22"
      class="wordmark"
      font-family="ui-sans-serif, system-ui, sans-serif, 'Segoe UI', Roboto, sans-serif"
      font-size="18"
      font-weight="600"
      fill="var(--fg-body, currentColor)"
    >
      ferrograph
    </text>
  </g>
</svg>
