<svg xmlns="http://www.w3.org/2000/svg" viewBox="0 0 32 32" fill="none" aria-hidden="true">
  <title>Ferrograph logo</title>
  <!-- Metaball graph mark: programmatically generated. Regenerate with: cd assets/gen-logo && cargo run > ../logo.svg -->
  <g id="mark" class="mark">
        <path d="M 14.854000790804202 11.167678795752813 C 7.093463328925879 13.110372364688267 16.56273690831538 10.739931274037577 8.802199446437058 12.68262484297303 L 10.762873773583008 9.545545919539512 C 12.417317318509056 17.372602617727697 10.39859392138394 7.8221634167553695 12.053037466309988 15.649220114943555 Z" />    <path d="M 19.994716456301838 15.205524776490046 C 22.19573275371433 7.514261729465546 19.601889651621494 16.578224419954974 21.80290594903399 8.886961372930475 L 23.49333074771626 11.140861104506838 C 15.493433659297242 11.10028309685597 24.92111391075309 11.14810327218389 16.92121682233407 11.107525264533022 Z" />    <path d="M 17.376874043695206 18.755558263134578 C 25.272580637358853 17.46799568726636 16.24374712902685 18.940338661409108 24.139453722690497 17.65277608554089 L 22.552445812918375 20.509390323130706 C 19.474342629738896 13.12526676012742 22.994189882510078 21.569099045994157 19.9160866993306 14.18497548299087 Z" />    <path d="M 12.069071451065394 15.740135624849168 C 11.92836553837112 23.738898144522626 12.106170187161577 13.631169667901961 11.965464274467303 21.629932187575417 L 10.065113655006943 20.001060228037964 C 17.948253358389824 18.63866952895474 7.986632986603233 20.360270243007296 15.869772689986114 18.99787954392407 Z" />    <path d="M 12.644061633861487 12.823379297470602 C 6.426158545664657 17.857034151132336 13.728075352959161 11.945824462476494 7.510172264762331 16.979479316138228 L 7.286311563254516 14.740872301060087 C 14.377851194984425 18.443582882729146 6.049990227704498 14.095350971530749 13.141529859434407 17.79806155319981 Z" />    <path d="M 5.602799804046007 11.446869455244023 C 9.376583450539277 18.50084400789588 3.767273622334296 8.015895083262702 7.541057268827567 15.069869635914557 L 5.325232403389212 14.331261347435104 C 12.576644052174943 10.952351893209585 1.7982268348310493 15.974725135993136 9.04963848361678 12.595815681767615 Z" />    <path d="M 20 15 A 4 4 0 1 1 12 15 A 4 4 0 1 1 20 15 Z" />    <path d="M 10.8 10 A 2.8 2.8 0 1 1 5.2 10 A 2.8 2.8 0 1 1 10.8 10 Z" />    <path d="M 26.2 9 A 2.2 2.2 0 1 1 21.8 9 A 2.2 2.2 0 1 1 26.2 9 Z" />    <path d="M 27.5 20 A 2.5 2.5 0 1 1 22.5 20 A 2.5 2.5 0 1 1 27.5 20 Z" />    <path d="M 12 22 A 2 2 0 1 1 8 22 A 2 2 0 1 1 12 22 Z" />    <path d="M 7.8 16 A 1.8 1.8 0 1 1 4.2 16 A 1.8 1.8 0 1 1 7.8 16 Z" />
  </g>
  <style>
    .mark path { fill: var(--fg-body, currentColor); }
  </style>
</svg>

