<svg xmlns="http://www.w3.org/2000/svg" viewBox="0 0 200 32" fill="none" aria-hidden="true">
  <title>Ferrograph wordmark</title>
  <g class="lockup">
    <!-- Logo mark (metaball graph, 32×32). Same content as logo.svg; regenerate both from assets/gen-logo. -->
    <g transform="translate(0, 0)" class="mark">
      <path d="M 9.715880234402587 11.013484311309101 C 3.674469244462794 16.25765757795797 13.24976548471123 7.94593823839112 7.208354494771437 13.190111505039992 L 9.190111505039992 11.208354494771438 C 3.9459382383911175 17.249765484711226 12.257657577957975 7.674469244462795 7.013484311309101 13.715880234402585 Z" />
      <path d="M 12.857671081968228 13.08691950667943 C 5.645243508093535 9.625577499363192 17.116802113764656 15.130934369084656 9.904374539889965 11.669592361768418 L 12.187924535333012 13.191959025397116 C 6.218829000166218 7.865618960019029 15.712834805167233 16.337305030745657 9.743739270000438 11.01096496536757 Z" />
      <path d="M 8.555634918610405 12.555634918610405 C 12.707050304426858 5.717086074417916 6.292949695573142 16.282913925582083 10.444365081389595 9.444365081389595 L 10.444365081389595 12.555634918610405 C 6.292949695573142 5.717086074417916 12.707050304426858 16.282913925582083 8.555634918610405 9.444365081389595 Z" />
      <path d="M 13.07378307332661 16.661252219693925 C 17.774106372664523 23.13481081460145 10.445569113555905 13.041523110650262 15.145892412893819 19.51508170555779 L 12.864671687054251 17.804166161178113 C 20.395378461980094 20.503880121968407 8.653831833636541 16.294604910330463 16.184538608562384 18.994318871120754 Z" />
      <path d="M 16.91308049332057 18.857671081968228 C 20.37442250063681 11.645243508093536 14.869065630915344 23.116802113764656 18.330407638231584 15.904374539889965 L 16.808040974602886 18.187924535333014 C 22.13438103998097 12.218829000166215 13.662694969254346 21.712834805167237 18.98903503463243 15.743739270000438 Z" />
      <path d="M 14.967739820199816 20.98386991009991 C 18.660385767498408 13.88708430618744 13.339614232501592 24.11291569381256 17.032260179800186 17.01613008990009 L 18.01613008990009 19.967739820199814 C 10.803941969713733 16.505898905448998 21.196058030286267 21.494101094551002 13.983869910099909 18.032260179800186 Z" />
      <path d="M 24.986515688690897 13.715880234402587 C 19.74234242204203 7.674469244462793 28.054061761608878 17.24976548471123 22.809888494960006 11.208354494771436 L 24.791645505228562 13.190111505039992 C 18.75023451528877 7.945938238391118 28.325530755537205 16.257657577957975 22.284119765597413 11.013484311309101 Z" />
      <path d="M 21.57133739489133 11.030783205796276 C 18.603615694828036 18.45995731271916 23.282074277142986 6.748251542159848 20.314352577079692 14.177425649082732 L 22.177425649082732 12.314352577079692 C 14.74825154215985 15.282074277142986 26.45995731271916 10.603615694828036 19.030783205796276 13.57133739489133 Z" />
      <path d="M 23.169489352456743 9.779659568304496 C 20.268157352097695 17.235011513296268 24.731842647902305 5.764988486703733 21.830510647543257 13.220340431695504 L 21.220340431695504 10.169489352456743 C 26.765936103177612 15.935455763080284 18.234063896822388 7.0645442369197164 23.779659568304496 12.830510647543257 Z" />
      <path d="M 11.341640786499873 16.683281572999746 C 16.956149388300293 10.984396317065116 9.043850611699707 19.01560368293488 14.658359213500127 13.316718427000252 L 13.316718427000252 17.341640786499873 C 12.244442699120698 9.413827420671918 13.755557300879302 20.586172579328082 12.683281572999748 12.658359213500127 Z" />
      <path d="M 12.121320343559642 16.121320343559642 C 19.140161927250528 12.282588414516974 12.859838072749472 15.717411585483026 19.878679656440358 11.878679656440358 L 19.878679656440358 16.121320343559642 C 12.859838072749472 12.282588414516974 19.140161927250528 15.717411585483026 12.121320343559642 11.878679656440358 Z" />
      <path d="M 18.683281572999746 17.341640786499873 C 19.755557300879307 9.413827420671918 18.244442699120693 20.586172579328082 19.316718427000254 12.658359213500127 L 20.658359213500127 16.683281572999746 C 15.043850611699707 10.984396317065116 22.956149388300293 19.01560368293488 17.341640786499873 13.316718427000252 Z" />
      <path d="M 13 14 A 3 3 0 1 1 7 14 A 3 3 0 1 1 13 14 Z" />
      <path d="M 9.2 11 A 2.2 2.2 0 1 1 4.8 11 A 2.2 2.2 0 1 1 9.2 11 Z" />
      <path d="M 14.2 11 A 2.2 2.2 0 1 1 9.8 11 A 2.2 2.2 0 1 1 14.2 11 Z" />
      <path d="M 19 16 A 3 3 0 1 1 13 16 A 3 3 0 1 1 19 16 Z" />
      <path d="M 15.2 20 A 2.2 2.2 0 1 1 10.8 20 A 2.2 2.2 0 1 1 15.2 20 Z" />
      <path d="M 21.2 18 A 2.2 2.2 0 1 1 16.8 18 A 2.2 2.2 0 1 1 21.2 18 Z" />
      <path d="M 25 14 A 3 3 0 1 1 19 14 A 3 3 0 1 1 25 14 Z" />
      <path d="M 27.2 11 A 2.2 2.2 0 1 1 22.8 11 A 2.2 2.2 0 1 1 27.2 11 Z" />
      <path d="M 22.2 12 A 2.2 2.2 0 1 1 17.8 12 A 2.2 2.2 0 1 1 22.2 12 Z" />
    </g>
    <!-- Wordmark: "ferrograph" -->
    <text
      x="44"
      y="22"
      class="wordmark"
      font-family="ui-sans-serif, system-ui, sans-serif, 'Segoe UI', Roboto, sans-serif"
      font-size="18"
      font-weight="600"
      fill="var(--fg-body, currentColor)"
    >
      ferrograph
    </text>
  </g>
  <style>
    .mark path { fill: var(--fg-body, currentColor); }
  </style>
</svg>
