<svg xmlns="http://www.w3.org/2000/svg" viewBox="0 0 200 32" fill="none" aria-hidden="true">
  <title>Ferrograph wordmark</title>
  <g class="lockup">
    <!-- Logo mark (metaball graph, 32×32). Same content as logo.svg; regenerate both from assets/gen-logo. -->
    <g transform="translate(0, 0)" class="mark">
      <path d="M 9.711674823019834 10.741409696803808 C 3.443452093571798 15.712263125947644 13.4218375127785 7.799160238687887 7.153614783330465 12.770013667831723 L 8.89987762128856 10.722671030225678 C 4.979981375672384 17.696508813226096 11.220065244789115 6.594854603830786 7.300168999172938 13.568692386831206 Z" />
      <path d="M 13.052636593490773 13.078018711563955 C 6.1687137066355415 9.002284950898183 16.972303578336845 15.398718597846702 10.088380691481614 11.322984837180933 L 12.452630456732114 13.24941057182949 C 7.070492934101892 7.33057659143303 15.517189299428889 16.61956135984092 10.135051776798667 10.700727379444459 Z" />
      <path d="M 8.196328442116373 12.268523790618701 C 13.361493098883802 6.159426142972151 5.672277324673773 15.253844834335146 10.837441981441202 9.144747186688596 L 10.716207533659901 12.539311724565016 C 6.000010771901063 6.077308311971097 13.02086236997765 15.69708655234433 8.304665608218812 9.235083139750412 Z" />
      <path d="M 12.719286763822694 17.251674000822746 C 17.871587150270376 23.37162504048075 9.670740411086062 13.630581863037 14.823040797533745 19.750532902695003 L 12.805750573853249 18.30222197287311 C 20.251832333256733 21.227263243056953 8.40000485112398 16.571514671862833 15.846086610527463 19.496555942046676 Z" />
      <path d="M 17.23659646660409 19.09237280086169 C 19.258683971671136 11.352142693051473 16.062640865946115 23.586088558797698 18.08472837101316 15.845858450987484 L 17.044705683138826 18.445915170673313 C 20.918525150373185 11.446377847730023 14.795697147107699 22.509609754460058 18.669516614342058 15.51007243151677 Z" />
      <path d="M 14.721187472099565 21.12660522105029 C 18.687432064770245 14.179022632040601 13.184919501217308 23.817651715328118 17.15116409388799 16.870069126318427 L 18.346272307805485 19.881741825390513 C 10.695421834738163 17.544117595800667 21.309719532795782 20.787187051464944 13.658869059728458 18.449562821875098 Z" />
      <path d="M 25.34665533801273 13.061965994901175 C 19.82835332300104 7.269872861057601 28.62088385935274 16.49864569918302 23.10258184434105 10.706552565339443 L 25.031190619215483 12.783515861358064 C 19.663169396438096 6.851876277582632 28.21625155697551 16.30299403610703 22.848230334198124 10.3713544523316 Z" />
      <path d="M 21.248657732421425 10.639405824936073 C 19.999459850297658 18.54127298727799 21.99319292608655 5.929809145162451 20.743995043962784 13.831676307504367 L 21.89874609408377 11.433347203406937 C 16.50057244823219 17.337559368398423 25.116114869973096 7.91437410025978 19.717941224121518 13.818586265251268 Z" />
      <path d="M 23.42314865356448 9.45220688999142 C 19.838704365573275 16.604252691458804 25.21863992200774 5.869661101495548 21.634195634016535 13.021706902962931 L 20.937890375552357 10.075800040229877 C 27.345090871044295 14.866184347419424 17.728446562082397 7.676238907458952 24.135647057574335 12.466623214648498 Z" />
      <path d="M 11.052293400383865 16.37193000627038 C 17.343575682193904 11.430293915805695 8.49764546260721 18.378538497554967 14.788927744417247 13.436902407090283 L 12.767982801017885 17.4066156887676 C 13.062410620680506 9.412035508482415 12.648426979385162 20.652907439180012 12.942854799047783 12.658327258894824 Z" />
      <path d="M 12.320201195750705 15.578571931858246 C 19.377184415143645 11.810417497495655 13.35937077788654 15.023695811674314 20.41635399727948 11.255541377311722 L 20.547091795682405 15.27572867820171 C 13.260195040443167 11.974041885290571 19.474066507001 14.789541822109395 12.187169751761763 11.487855029198258 Z" />
      <path d="M 18.633814635934858 17.401364909498238 C 20.413853883926738 9.601912346939216 18.02274407058414 20.078842887697736 19.80278331857602 12.279390325138714 L 21.490175859042132 15.865099473629211 C 14.345813457302112 12.265365334473435 23.942767607694186 17.100854009945053 16.798405205954168 13.501119870789276 Z" />
      <path d="M 13.1 13.6 A 2.9 2.9 0 1 1 7.299999999999999 13.6 A 2.9 2.9 0 1 1 13.1 13.6 Z" />
      <path d="M 8.9 10.7 A 2.1 2.1 0 1 1 4.699999999999999 10.7 A 2.1 2.1 0 1 1 8.9 10.7 Z" />
      <path d="M 14.75 10.9 A 2.35 2.35 0 1 1 10.05 10.9 A 2.35 2.35 0 1 1 14.75 10.9 Z" />
      <path d="M 18.8 16.4 A 3.1 3.1 0 1 1 12.6 16.4 A 3.1 3.1 0 1 1 18.8 16.4 Z" />
      <path d="M 14.9 20.3 A 2 2 0 1 1 10.9 20.3 A 2 2 0 1 1 14.9 20.3 Z" />
      <path d="M 21.45 17.8 A 2.25 2.25 0 1 1 16.95 17.8 A 2.25 2.25 0 1 1 21.45 17.8 Z" />
      <path d="M 25.35 13.2 A 2.85 2.85 0 1 1 19.65 13.2 A 2.85 2.85 0 1 1 25.35 13.2 Z" />
      <path d="M 27.5 10.6 A 2.2 2.2 0 1 1 23.1 10.6 A 2.2 2.2 0 1 1 27.5 10.6 Z" />
      <path d="M 21.95 11.9 A 2.15 2.15 0 1 1 17.650000000000002 11.9 A 2.15 2.15 0 1 1 21.95 11.9 Z" />
    </g>
    <!-- Wordmark: "ferrograph" -->
    <text
      x="44"
      y="22"
      class="wordmark"
      font-family="ui-sans-serif, system-ui, sans-serif, 'Segoe UI', Roboto, sans-serif"
      font-size="18"
      font-weight="600"
      fill="var(--fg-body, currentColor)"
    >
      ferrograph
    </text>
  </g>
  <style>
    .mark path { fill: var(--fg-body, currentColor); }
  </style>
</svg>
